<svg xmlns="http://www.w3.org/2000/svg" width="375" viewBox="0 0 375 187.5" height="187.5" version="1.0"><defs><clipPath id="a"><path d="M 49.539062 46.9375 L 142.691406 46.9375 L 142.691406 140.09375 L 49.539062 140.09375 Z M 49.539062 46.9375"/></clipPath></defs><g clip-path="url(#a)"><path d="M 142.660156 89.933594 C 142.664062 89.898438 142.65625 89.867188 142.644531 89.835938 C 142.644531 89.832031 142.644531 89.832031 142.644531 89.828125 L 133.359375 65.535156 C 133.359375 65.535156 133.355469 65.53125 133.355469 65.527344 C 133.339844 65.492188 133.316406 65.457031 133.285156 65.433594 L 112.871094 49.25 C 112.835938 49.226562 112.796875 49.207031 112.757812 49.199219 C 112.753906 49.199219 112.75 49.199219 112.746094 49.199219 L 96.082031 46.9375 C 96.050781 46.933594 96.015625 46.9375 95.984375 46.945312 L 88.039062 49.195312 L 87.8125 49.195312 C 87.769531 49.195312 87.726562 49.207031 87.6875 49.230469 L 87.484375 49.351562 L 67.9375 54.890625 C 67.929688 54.890625 67.925781 54.894531 67.921875 54.898438 C 67.894531 54.90625 67.871094 54.921875 67.847656 54.941406 C 67.839844 54.949219 67.832031 54.953125 67.824219 54.960938 C 67.820312 54.96875 67.8125 54.96875 67.808594 54.972656 L 50.691406 77.117188 C 50.683594 77.125 50.683594 77.132812 50.679688 77.140625 C 50.671875 77.152344 50.664062 77.160156 50.660156 77.171875 C 50.65625 77.175781 50.65625 77.183594 50.65625 77.191406 C 50.648438 77.203125 50.648438 77.21875 50.644531 77.230469 C 50.644531 77.238281 50.640625 77.246094 50.640625 77.253906 L 49.5625 96.730469 C 49.5625 96.746094 49.5625 96.765625 49.5625 96.78125 L 51.144531 106.632812 C 51.144531 106.644531 51.152344 106.65625 51.15625 106.667969 C 51.15625 106.675781 51.15625 106.683594 51.160156 106.691406 C 51.160156 106.695312 51.164062 106.695312 51.164062 106.699219 C 51.164062 106.699219 51.164062 106.703125 51.167969 106.707031 L 59.136719 121.832031 C 59.152344 121.859375 59.167969 121.882812 59.191406 121.902344 L 68.539062 130.136719 C 68.554688 130.15625 68.570312 130.167969 68.589844 130.183594 L 79.402344 137.441406 C 79.429688 137.460938 79.464844 137.472656 79.5 137.480469 L 96.460938 140.109375 C 96.464844 140.109375 96.464844 140.109375 96.464844 140.109375 C 96.476562 140.109375 96.488281 140.113281 96.503906 140.113281 C 96.519531 140.113281 96.535156 140.109375 96.554688 140.105469 C 96.554688 140.105469 96.554688 140.105469 96.558594 140.105469 C 96.558594 140.105469 96.558594 140.105469 96.5625 140.105469 L 96.5625 140.101562 C 96.566406 140.101562 96.566406 140.101562 96.566406 140.101562 C 96.566406 140.101562 96.570312 140.101562 96.570312 140.101562 L 124.28125 132.03125 C 124.292969 132.027344 124.300781 132.019531 124.308594 132.015625 C 124.335938 132.003906 124.355469 131.988281 124.378906 131.964844 C 124.386719 131.957031 124.402344 131.953125 124.40625 131.945312 L 141.269531 109.789062 C 141.292969 109.753906 141.304688 109.710938 141.3125 109.671875 C 141.3125 109.667969 141.316406 109.664062 141.316406 109.65625 Z M 140.84375 109.449219 L 133.550781 111.285156 L 142.074219 91.335938 Z M 111.253906 106.621094 L 84.386719 97.203125 L 104.652344 82.660156 Z M 104.652344 81.875 L 84.445312 68.703125 L 110.71875 61.214844 Z M 104.363281 82.269531 L 84.109375 96.800781 L 84.109375 69.066406 Z M 83.621094 96.886719 L 60.632812 85.644531 L 83.621094 69.09375 Z M 88.597656 123.839844 L 66.683594 111.605469 L 83.699219 97.726562 Z M 84.179688 97.644531 L 111.105469 107.085938 L 89.101562 123.871094 Z M 111.402344 107.472656 L 112.820312 127.546875 L 89.542969 124.148438 Z M 111.714844 106.453125 L 105.125 82.535156 L 127.539062 84.765625 Z M 127.851562 85.167969 L 132.824219 111.324219 L 112.03125 106.847656 Z M 133.222656 110.808594 L 128.308594 84.945312 L 142.089844 90.054688 Z M 127.886719 84.007812 L 111.640625 61.230469 L 132.832031 65.808594 Z M 127.476562 84.273438 L 105.109375 82.046875 L 111.167969 61.40625 Z M 84.183594 68.273438 L 87.988281 49.796875 L 110.402344 60.796875 Z M 83.679688 68.296875 L 66.488281 62.570312 L 87.460938 49.933594 Z M 83.335938 68.695312 L 60.558594 85.097656 L 66.082031 62.949219 Z M 60.023438 85.230469 L 51.238281 77.261719 L 65.464844 63.40625 Z M 65.691406 62.507812 L 53.195312 74.675781 L 67.433594 56.257812 Z M 59.871094 85.746094 L 51.609375 105.425781 L 51.136719 77.828125 Z M 60.09375 86.46875 L 65.914062 111.269531 L 51.710938 106.445312 Z M 60.515625 86.128906 L 83.414062 97.328125 L 66.402344 111.207031 Z M 88.300781 124.230469 L 68.929688 129.667969 L 66.5625 112.09375 Z M 88.804688 124.59375 L 96.023438 139.4375 L 69.527344 130.003906 Z M 96.59375 139.5 L 89.355469 124.613281 L 112.457031 127.984375 Z M 113.296875 127.347656 L 111.878906 107.3125 L 132.585938 111.773438 Z M 132.503906 112.464844 L 124.082031 131.492188 L 113.578125 127.746094 Z M 133.308594 111.847656 L 140.460938 110.046875 L 125.277344 130 Z M 128.28125 84.417969 L 133.171875 66.410156 L 141.996094 89.5 Z M 112.894531 49.894531 L 132.164062 65.164062 L 111.351562 60.667969 Z M 96.066406 47.429688 L 109.109375 49.195312 L 89.824219 49.195312 Z M 112.433594 49.683594 L 110.882812 60.492188 L 88.863281 49.683594 Z M 66.308594 62.109375 L 68.203125 55.320312 L 85.902344 50.308594 Z M 50.050781 96.730469 L 50.753906 84.015625 L 51.078125 103.160156 Z M 59.546875 121.566406 L 53.082031 109.292969 L 67.152344 128.269531 Z M 52.042969 107.074219 L 66.03125 111.824219 L 68.355469 129.070312 Z M 70.464844 130.855469 L 93.992188 139.234375 L 79.628906 137.007812 Z M 113.125 128.101562 L 123.425781 131.773438 L 97.777344 139.242188 Z M 113.125 128.101562"/></g><g fill="#231F20"><g><g><path d="M 4.859375 -12.0625 L 0.09375 -12.0625 L 0.09375 -15.546875 L 14.015625 -15.546875 L 14.015625 -12.0625 L 9.265625 -12.0625 L 9.265625 0 L 4.859375 0 Z M 4.859375 -12.0625" transform="translate(194.32 85.509)"/></g></g></g><g fill="#231F20"><g><g><path d="M 8.734375 0.3125 C 6.421875 0.3125 4.625 -0.316406 3.34375 -1.578125 C 2.0625 -2.835938 1.421875 -4.625 1.421875 -6.9375 L 1.421875 -15.546875 L 5.828125 -15.546875 L 5.828125 -7.0625 C 5.828125 -4.570312 6.8125 -3.328125 8.78125 -3.328125 C 10.726562 -3.328125 11.703125 -4.570312 11.703125 -7.0625 L 11.703125 -15.546875 L 16.046875 -15.546875 L 16.046875 -6.9375 C 16.046875 -4.625 15.40625 -2.835938 14.125 -1.578125 C 12.84375 -0.316406 11.046875 0.3125 8.734375 0.3125 Z M 8.734375 0.3125" transform="translate(212.869 85.509)"/></g></g></g><g fill="#231F20"><g><g><path d="M 8.359375 -4.125 L 5.953125 -4.125 L 5.953125 0 L 1.5625 0 L 1.5625 -15.546875 L 8.671875 -15.546875 C 10.078125 -15.546875 11.296875 -15.3125 12.328125 -14.84375 C 13.367188 -14.382812 14.171875 -13.71875 14.734375 -12.84375 C 15.296875 -11.976562 15.578125 -10.960938 15.578125 -9.796875 C 15.578125 -8.671875 15.3125 -7.6875 14.78125 -6.84375 C 14.257812 -6.007812 13.507812 -5.359375 12.53125 -4.890625 L 15.890625 0 L 11.171875 0 Z M 11.125 -9.796875 C 11.125 -10.523438 10.894531 -11.085938 10.4375 -11.484375 C 9.976562 -11.890625 9.300781 -12.09375 8.40625 -12.09375 L 5.953125 -12.09375 L 5.953125 -7.53125 L 8.40625 -7.53125 C 9.300781 -7.53125 9.976562 -7.722656 10.4375 -8.109375 C 10.894531 -8.503906 11.125 -9.066406 11.125 -9.796875 Z M 11.125 -9.796875" transform="translate(234.77 85.509)"/></g></g></g><g fill="#231F20"><g><g><path d="M 13.515625 -8.109375 C 14.398438 -7.796875 15.09375 -7.3125 15.59375 -6.65625 C 16.101562 -6 16.359375 -5.203125 16.359375 -4.265625 C 16.359375 -2.898438 15.804688 -1.847656 14.703125 -1.109375 C 13.609375 -0.367188 12.023438 0 9.953125 0 L 1.5625 0 L 1.5625 -15.546875 L 9.515625 -15.546875 C 11.492188 -15.546875 13 -15.179688 14.03125 -14.453125 C 15.070312 -13.722656 15.59375 -12.734375 15.59375 -11.484375 C 15.59375 -10.742188 15.410156 -10.082031 15.046875 -9.5 C 14.691406 -8.914062 14.179688 -8.453125 13.515625 -8.109375 Z M 5.90625 -12.375 L 5.90625 -9.375 L 8.9375 -9.375 C 10.414062 -9.375 11.15625 -9.878906 11.15625 -10.890625 C 11.15625 -11.878906 10.414062 -12.375 8.9375 -12.375 Z M 9.59375 -3.171875 C 11.132812 -3.171875 11.90625 -3.695312 11.90625 -4.75 C 11.90625 -5.800781 11.132812 -6.328125 9.59375 -6.328125 L 5.90625 -6.328125 L 5.90625 -3.171875 Z M 9.59375 -3.171875" transform="translate(255.65 85.509)"/></g></g></g><g fill="#231F20"><g><g><path d="M 9.40625 0.3125 C 7.757812 0.3125 6.28125 -0.0351562 4.96875 -0.734375 C 3.65625 -1.429688 2.625 -2.394531 1.875 -3.625 C 1.125 -4.851562 0.75 -6.238281 0.75 -7.78125 C 0.75 -9.320312 1.125 -10.707031 1.875 -11.9375 C 2.625 -13.164062 3.65625 -14.125 4.96875 -14.8125 C 6.28125 -15.507812 7.757812 -15.859375 9.40625 -15.859375 C 11.039062 -15.859375 12.515625 -15.507812 13.828125 -14.8125 C 15.140625 -14.125 16.171875 -13.164062 16.921875 -11.9375 C 17.671875 -10.707031 18.046875 -9.320312 18.046875 -7.78125 C 18.046875 -6.238281 17.671875 -4.851562 16.921875 -3.625 C 16.171875 -2.394531 15.140625 -1.429688 13.828125 -0.734375 C 12.515625 -0.0351562 11.039062 0.3125 9.40625 0.3125 Z M 9.40625 -3.328125 C 10.1875 -3.328125 10.894531 -3.507812 11.53125 -3.875 C 12.164062 -4.25 12.664062 -4.773438 13.03125 -5.453125 C 13.40625 -6.128906 13.59375 -6.90625 13.59375 -7.78125 C 13.59375 -8.65625 13.40625 -9.425781 13.03125 -10.09375 C 12.664062 -10.769531 12.164062 -11.289062 11.53125 -11.65625 C 10.894531 -12.03125 10.1875 -12.21875 9.40625 -12.21875 C 8.613281 -12.21875 7.898438 -12.03125 7.265625 -11.65625 C 6.628906 -11.289062 6.125 -10.769531 5.75 -10.09375 C 5.382812 -9.425781 5.203125 -8.65625 5.203125 -7.78125 C 5.203125 -6.90625 5.382812 -6.128906 5.75 -5.453125 C 6.125 -4.773438 6.628906 -4.25 7.265625 -3.875 C 7.898438 -3.507812 8.613281 -3.328125 9.40625 -3.328125 Z M 9.40625 -3.328125" transform="translate(277.175 85.509)"/></g></g></g><g fill="#008037"><g><g><path d="M 7.234375 -7.0625 L 7.234375 0 L 6.140625 0 L 2.25 -4.78125 L 2.25 0 L 0.953125 0 L 0.953125 -7.0625 L 2.03125 -7.0625 L 5.921875 -2.28125 L 5.921875 -7.0625 Z M 7.234375 -7.0625" transform="translate(180.442 101.277)"/></g></g></g><g fill="#008037"><g><g><path d="M 6.25 -1.09375 L 6.25 0 L 0.953125 0 L 0.953125 -7.0625 L 6.109375 -7.0625 L 6.109375 -5.96875 L 2.265625 -5.96875 L 2.265625 -4.125 L 5.671875 -4.125 L 5.671875 -3.046875 L 2.265625 -3.046875 L 2.265625 -1.09375 Z M 6.25 -1.09375" transform="translate(190.63 101.277)"/></g></g></g><g fill="#008037"><g><g><path d="M 5.40625 0 L 3.484375 -2.6875 L 1.578125 0 L 0.09375 0 L 2.71875 -3.609375 L 0.234375 -7.0625 L 1.71875 -7.0625 L 3.515625 -4.546875 L 5.3125 -7.0625 L 6.734375 -7.0625 L 4.265625 -3.65625 L 6.921875 0 Z M 5.40625 0" transform="translate(199.407 101.277)"/></g></g></g><g fill="#008037"><g><g><path d="M 2.375 -5.953125 L 0.046875 -5.953125 L 0.046875 -7.0625 L 6.03125 -7.0625 L 6.03125 -5.953125 L 3.6875 -5.953125 L 3.6875 0 L 2.375 0 Z M 2.375 -5.953125" transform="translate(208.415 101.277)"/></g></g></g><g fill="#008037"><g><g><path d="M 5.78125 -3.609375 L 7.015625 -3.609375 L 7.015625 -0.796875 C 6.648438 -0.503906 6.222656 -0.28125 5.734375 -0.125 C 5.253906 0.0195312 4.757812 0.09375 4.25 0.09375 C 3.53125 0.09375 2.878906 -0.0625 2.296875 -0.375 C 1.722656 -0.6875 1.269531 -1.117188 0.9375 -1.671875 C 0.601562 -2.222656 0.4375 -2.84375 0.4375 -3.53125 C 0.4375 -4.226562 0.601562 -4.851562 0.9375 -5.40625 C 1.269531 -5.957031 1.722656 -6.390625 2.296875 -6.703125 C 2.878906 -7.015625 3.535156 -7.171875 4.265625 -7.171875 C 4.859375 -7.171875 5.394531 -7.070312 5.875 -6.875 C 6.363281 -6.675781 6.773438 -6.390625 7.109375 -6.015625 L 6.28125 -5.203125 C 5.738281 -5.742188 5.085938 -6.015625 4.328125 -6.015625 C 3.828125 -6.015625 3.382812 -5.910156 3 -5.703125 C 2.613281 -5.492188 2.3125 -5.203125 2.09375 -4.828125 C 1.875 -4.453125 1.765625 -4.019531 1.765625 -3.53125 C 1.765625 -3.0625 1.875 -2.640625 2.09375 -2.265625 C 2.3125 -1.890625 2.613281 -1.59375 3 -1.375 C 3.382812 -1.15625 3.820312 -1.046875 4.3125 -1.046875 C 4.863281 -1.046875 5.351562 -1.164062 5.78125 -1.40625 Z M 5.78125 -3.609375" transform="translate(221.31 101.277)"/></g></g></g><g fill="#008037"><g><g><path d="M 6.25 -1.09375 L 6.25 0 L 0.953125 0 L 0.953125 -7.0625 L 6.109375 -7.0625 L 6.109375 -5.96875 L 2.265625 -5.96875 L 2.265625 -4.125 L 5.671875 -4.125 L 5.671875 -3.046875 L 2.265625 -3.046875 L 2.265625 -1.09375 Z M 6.25 -1.09375" transform="translate(231.114 101.277)"/></g></g></g><g fill="#008037"><g><g><path d="M 7.234375 -7.0625 L 7.234375 0 L 6.140625 0 L 2.25 -4.78125 L 2.25 0 L 0.953125 0 L 0.953125 -7.0625 L 2.03125 -7.0625 L 5.921875 -2.28125 L 5.921875 -7.0625 Z M 7.234375 -7.0625" transform="translate(239.891 101.277)"/></g></g></g><g fill="#008037"><g><g><path d="M 6.25 -1.09375 L 6.25 0 L 0.953125 0 L 0.953125 -7.0625 L 6.109375 -7.0625 L 6.109375 -5.96875 L 2.265625 -5.96875 L 2.265625 -4.125 L 5.671875 -4.125 L 5.671875 -3.046875 L 2.265625 -3.046875 L 2.265625 -1.09375 Z M 6.25 -1.09375" transform="translate(250.08 101.277)"/></g></g></g><g fill="#008037"><g><g><path d="M 5.578125 0 L 4.125 -2.0625 C 4.0625 -2.0625 3.972656 -2.0625 3.859375 -2.0625 L 2.265625 -2.0625 L 2.265625 0 L 0.953125 0 L 0.953125 -7.0625 L 3.859375 -7.0625 C 4.472656 -7.0625 5.003906 -6.957031 5.453125 -6.75 C 5.910156 -6.550781 6.257812 -6.265625 6.5 -5.890625 C 6.738281 -5.515625 6.859375 -5.066406 6.859375 -4.546875 C 6.859375 -4.015625 6.726562 -3.554688 6.46875 -3.171875 C 6.21875 -2.796875 5.847656 -2.515625 5.359375 -2.328125 L 6.984375 0 Z M 5.546875 -4.546875 C 5.546875 -5.003906 5.394531 -5.351562 5.09375 -5.59375 C 4.800781 -5.832031 4.367188 -5.953125 3.796875 -5.953125 L 2.265625 -5.953125 L 2.265625 -3.140625 L 3.796875 -3.140625 C 4.367188 -3.140625 4.800781 -3.257812 5.09375 -3.5 C 5.394531 -3.75 5.546875 -4.097656 5.546875 -4.546875 Z M 5.546875 -4.546875" transform="translate(258.856 101.277)"/></g></g></g><g fill="#008037"><g><g><path d="M 5.53125 -1.640625 L 2 -1.640625 L 1.296875 0 L -0.046875 0 L 3.125 -7.0625 L 4.421875 -7.0625 L 7.609375 0 L 6.234375 0 Z M 5.09375 -2.671875 L 3.765625 -5.75 L 2.4375 -2.671875 Z M 5.09375 -2.671875" transform="translate(268.248 101.277)"/></g></g></g><g fill="#008037"><g><g><path d="M 2.375 -5.953125 L 0.046875 -5.953125 L 0.046875 -7.0625 L 6.03125 -7.0625 L 6.03125 -5.953125 L 3.6875 -5.953125 L 3.6875 0 L 2.375 0 Z M 2.375 -5.953125" transform="translate(277.821 101.277)"/></g></g></g><g fill="#008037"><g><g><path d="M 0.953125 -7.0625 L 2.265625 -7.0625 L 2.265625 0 L 0.953125 0 Z M 0.953125 -7.0625" transform="translate(285.912 101.277)"/></g></g></g><g fill="#008037"><g><g><path d="M 4.25 0.09375 C 3.53125 0.09375 2.878906 -0.0625 2.296875 -0.375 C 1.722656 -0.6875 1.269531 -1.117188 0.9375 -1.671875 C 0.601562 -2.222656 0.4375 -2.84375 0.4375 -3.53125 C 0.4375 -4.21875 0.601562 -4.835938 0.9375 -5.390625 C 1.269531 -5.953125 1.722656 -6.390625 2.296875 -6.703125 C 2.878906 -7.015625 3.53125 -7.171875 4.25 -7.171875 C 4.96875 -7.171875 5.613281 -7.015625 6.1875 -6.703125 C 6.769531 -6.390625 7.226562 -5.957031 7.5625 -5.40625 C 7.894531 -4.851562 8.0625 -4.226562 8.0625 -3.53125 C 8.0625 -2.84375 7.894531 -2.222656 7.5625 -1.671875 C 7.226562 -1.117188 6.769531 -0.6875 6.1875 -0.375 C 5.613281 -0.0625 4.96875 0.09375 4.25 0.09375 Z M 4.25 -1.046875 C 4.71875 -1.046875 5.140625 -1.148438 5.515625 -1.359375 C 5.898438 -1.578125 6.195312 -1.875 6.40625 -2.25 C 6.625 -2.632812 6.734375 -3.0625 6.734375 -3.53125 C 6.734375 -4 6.625 -4.421875 6.40625 -4.796875 C 6.195312 -5.179688 5.898438 -5.476562 5.515625 -5.6875 C 5.140625 -5.90625 4.71875 -6.015625 4.25 -6.015625 C 3.78125 -6.015625 3.351562 -5.90625 2.96875 -5.6875 C 2.59375 -5.476562 2.296875 -5.179688 2.078125 -4.796875 C 1.867188 -4.421875 1.765625 -4 1.765625 -3.53125 C 1.765625 -3.0625 1.867188 -2.632812 2.078125 -2.25 C 2.296875 -1.875 2.59375 -1.578125 2.96875 -1.359375 C 3.351562 -1.148438 3.78125 -1.046875 4.25 -1.046875 Z M 4.25 -1.046875" transform="translate(291.149 101.277)"/></g></g></g><g fill="#008037"><g><g><path d="M 7.234375 -7.0625 L 7.234375 0 L 6.140625 0 L 2.25 -4.78125 L 2.25 0 L 0.953125 0 L 0.953125 -7.0625 L 2.03125 -7.0625 L 5.921875 -2.28125 L 5.921875 -7.0625 Z M 7.234375 -7.0625" transform="translate(301.66 101.277)"/></g></g></g><g fill="#008037"><g><g><path d="M 3.859375 -7.0625 C 4.472656 -7.0625 5.003906 -6.957031 5.453125 -6.75 C 5.910156 -6.550781 6.257812 -6.265625 6.5 -5.890625 C 6.738281 -5.515625 6.859375 -5.066406 6.859375 -4.546875 C 6.859375 -4.035156 6.738281 -3.585938 6.5 -3.203125 C 6.257812 -2.828125 5.910156 -2.535156 5.453125 -2.328125 C 5.003906 -2.128906 4.472656 -2.03125 3.859375 -2.03125 L 2.265625 -2.03125 L 2.265625 0 L 0.953125 0 L 0.953125 -7.0625 Z M 3.796875 -3.15625 C 4.367188 -3.15625 4.800781 -3.273438 5.09375 -3.515625 C 5.394531 -3.753906 5.546875 -4.097656 5.546875 -4.546875 C 5.546875 -5.003906 5.394531 -5.351562 5.09375 -5.59375 C 4.800781 -5.832031 4.367188 -5.953125 3.796875 -5.953125 L 2.265625 -5.953125 L 2.265625 -3.15625 Z M 3.796875 -3.15625" transform="translate(168.723 110.78)"/></g></g></g><g fill="#008037"><g><g><path d="M 6.25 -1.09375 L 6.25 0 L 0.953125 0 L 0.953125 -7.0625 L 6.109375 -7.0625 L 6.109375 -5.96875 L 2.265625 -5.96875 L 2.265625 -4.125 L 5.671875 -4.125 L 5.671875 -3.046875 L 2.265625 -3.046875 L 2.265625 -1.09375 Z M 6.25 -1.09375" transform="translate(178.065 110.78)"/></g></g></g><g fill="#008037"><g><g><path d="M 5.578125 0 L 4.125 -2.0625 C 4.0625 -2.0625 3.972656 -2.0625 3.859375 -2.0625 L 2.265625 -2.0625 L 2.265625 0 L 0.953125 0 L 0.953125 -7.0625 L 3.859375 -7.0625 C 4.472656 -7.0625 5.003906 -6.957031 5.453125 -6.75 C 5.910156 -6.550781 6.257812 -6.265625 6.5 -5.890625 C 6.738281 -5.515625 6.859375 -5.066406 6.859375 -4.546875 C 6.859375 -4.015625 6.726562 -3.554688 6.46875 -3.171875 C 6.21875 -2.796875 5.847656 -2.515625 5.359375 -2.328125 L 6.984375 0 Z M 5.546875 -4.546875 C 5.546875 -5.003906 5.394531 -5.351562 5.09375 -5.59375 C 4.800781 -5.832031 4.367188 -5.953125 3.796875 -5.953125 L 2.265625 -5.953125 L 2.265625 -3.140625 L 3.796875 -3.140625 C 4.367188 -3.140625 4.800781 -3.257812 5.09375 -3.5 C 5.394531 -3.75 5.546875 -4.097656 5.546875 -4.546875 Z M 5.546875 -4.546875" transform="translate(186.841 110.78)"/></g></g></g><g fill="#008037"><g><g><path d="M 3.140625 0.09375 C 2.597656 0.09375 2.070312 0.0195312 1.5625 -0.125 C 1.050781 -0.28125 0.648438 -0.488281 0.359375 -0.75 L 0.8125 -1.765625 C 1.09375 -1.535156 1.441406 -1.347656 1.859375 -1.203125 C 2.285156 -1.054688 2.710938 -0.984375 3.140625 -0.984375 C 3.660156 -0.984375 4.050781 -1.066406 4.3125 -1.234375 C 4.570312 -1.410156 4.703125 -1.632812 4.703125 -1.90625 C 4.703125 -2.101562 4.628906 -2.269531 4.484375 -2.40625 C 4.335938 -2.539062 4.15625 -2.644531 3.9375 -2.71875 C 3.71875 -2.789062 3.414062 -2.875 3.03125 -2.96875 C 2.488281 -3.09375 2.050781 -3.21875 1.71875 -3.34375 C 1.382812 -3.476562 1.097656 -3.679688 0.859375 -3.953125 C 0.617188 -4.222656 0.5 -4.59375 0.5 -5.0625 C 0.5 -5.445312 0.601562 -5.796875 0.8125 -6.109375 C 1.03125 -6.429688 1.351562 -6.6875 1.78125 -6.875 C 2.207031 -7.070312 2.726562 -7.171875 3.34375 -7.171875 C 3.78125 -7.171875 4.207031 -7.113281 4.625 -7 C 5.039062 -6.894531 5.398438 -6.742188 5.703125 -6.546875 L 5.296875 -5.515625 C 4.984375 -5.703125 4.65625 -5.84375 4.3125 -5.9375 C 3.976562 -6.03125 3.65625 -6.078125 3.34375 -6.078125 C 2.820312 -6.078125 2.4375 -5.988281 2.1875 -5.8125 C 1.9375 -5.632812 1.8125 -5.40625 1.8125 -5.125 C 1.8125 -4.914062 1.878906 -4.75 2.015625 -4.625 C 2.160156 -4.5 2.34375 -4.394531 2.5625 -4.3125 C 2.789062 -4.238281 3.097656 -4.15625 3.484375 -4.0625 C 4.003906 -3.945312 4.429688 -3.820312 4.765625 -3.6875 C 5.109375 -3.5625 5.398438 -3.363281 5.640625 -3.09375 C 5.878906 -2.820312 6 -2.457031 6 -2 C 6 -1.601562 5.890625 -1.25 5.671875 -0.9375 C 5.460938 -0.625 5.140625 -0.375 4.703125 -0.1875 C 4.273438 0 3.753906 0.09375 3.140625 0.09375 Z M 3.140625 0.09375" transform="translate(196.233 110.78)"/></g></g></g><g fill="#008037"><g><g><path d="M 4.25 0.09375 C 3.53125 0.09375 2.878906 -0.0625 2.296875 -0.375 C 1.722656 -0.6875 1.269531 -1.117188 0.9375 -1.671875 C 0.601562 -2.222656 0.4375 -2.84375 0.4375 -3.53125 C 0.4375 -4.21875 0.601562 -4.835938 0.9375 -5.390625 C 1.269531 -5.953125 1.722656 -6.390625 2.296875 -6.703125 C 2.878906 -7.015625 3.53125 -7.171875 4.25 -7.171875 C 4.96875 -7.171875 5.613281 -7.015625 6.1875 -6.703125 C 6.769531 -6.390625 7.226562 -5.957031 7.5625 -5.40625 C 7.894531 -4.851562 8.0625 -4.226562 8.0625 -3.53125 C 8.0625 -2.84375 7.894531 -2.222656 7.5625 -1.671875 C 7.226562 -1.117188 6.769531 -0.6875 6.1875 -0.375 C 5.613281 -0.0625 4.96875 0.09375 4.25 0.09375 Z M 4.25 -1.046875 C 4.71875 -1.046875 5.140625 -1.148438 5.515625 -1.359375 C 5.898438 -1.578125 6.195312 -1.875 6.40625 -2.25 C 6.625 -2.632812 6.734375 -3.0625 6.734375 -3.53125 C 6.734375 -4 6.625 -4.421875 6.40625 -4.796875 C 6.195312 -5.179688 5.898438 -5.476562 5.515625 -5.6875 C 5.140625 -5.90625 4.71875 -6.015625 4.25 -6.015625 C 3.78125 -6.015625 3.351562 -5.90625 2.96875 -5.6875 C 2.59375 -5.476562 2.296875 -5.179688 2.078125 -4.796875 C 1.867188 -4.421875 1.765625 -4 1.765625 -3.53125 C 1.765625 -3.0625 1.867188 -2.632812 2.078125 -2.25 C 2.296875 -1.875 2.59375 -1.578125 2.96875 -1.359375 C 3.351562 -1.148438 3.78125 -1.046875 4.25 -1.046875 Z M 4.25 -1.046875" transform="translate(204.596 110.78)"/></g></g></g><g fill="#008037"><g><g><path d="M 7.234375 -7.0625 L 7.234375 0 L 6.140625 0 L 2.25 -4.78125 L 2.25 0 L 0.953125 0 L 0.953125 -7.0625 L 2.03125 -7.0625 L 5.921875 -2.28125 L 5.921875 -7.0625 Z M 7.234375 -7.0625" transform="translate(215.108 110.78)"/></g></g></g><g fill="#008037"><g><g><path d="M 5.53125 -1.640625 L 2 -1.640625 L 1.296875 0 L -0.046875 0 L 3.125 -7.0625 L 4.421875 -7.0625 L 7.609375 0 L 6.234375 0 Z M 5.09375 -2.671875 L 3.765625 -5.75 L 2.4375 -2.671875 Z M 5.09375 -2.671875" transform="translate(225.296 110.78)"/></g></g></g><g fill="#008037"><g><g><path d="M 0.953125 -7.0625 L 2.265625 -7.0625 L 2.265625 -1.109375 L 5.953125 -1.109375 L 5.953125 0 L 0.953125 0 Z M 0.953125 -7.0625" transform="translate(234.87 110.78)"/></g></g></g><g fill="#008037"><g><g><path d="M 5.53125 -1.640625 L 2 -1.640625 L 1.296875 0 L -0.046875 0 L 3.125 -7.0625 L 4.421875 -7.0625 L 7.609375 0 L 6.234375 0 Z M 5.09375 -2.671875 L 3.765625 -5.75 L 2.4375 -2.671875 Z M 5.09375 -2.671875" transform="translate(247.733 110.78)"/></g></g></g><g fill="#008037"><g><g><path d="M 3.140625 0.09375 C 2.597656 0.09375 2.070312 0.0195312 1.5625 -0.125 C 1.050781 -0.28125 0.648438 -0.488281 0.359375 -0.75 L 0.8125 -1.765625 C 1.09375 -1.535156 1.441406 -1.347656 1.859375 -1.203125 C 2.285156 -1.054688 2.710938 -0.984375 3.140625 -0.984375 C 3.660156 -0.984375 4.050781 -1.066406 4.3125 -1.234375 C 4.570312 -1.410156 4.703125 -1.632812 4.703125 -1.90625 C 4.703125 -2.101562 4.628906 -2.269531 4.484375 -2.40625 C 4.335938 -2.539062 4.15625 -2.644531 3.9375 -2.71875 C 3.71875 -2.789062 3.414062 -2.875 3.03125 -2.96875 C 2.488281 -3.09375 2.050781 -3.21875 1.71875 -3.34375 C 1.382812 -3.476562 1.097656 -3.679688 0.859375 -3.953125 C 0.617188 -4.222656 0.5 -4.59375 0.5 -5.0625 C 0.5 -5.445312 0.601562 -5.796875 0.8125 -6.109375 C 1.03125 -6.429688 1.351562 -6.6875 1.78125 -6.875 C 2.207031 -7.070312 2.726562 -7.171875 3.34375 -7.171875 C 3.78125 -7.171875 4.207031 -7.113281 4.625 -7 C 5.039062 -6.894531 5.398438 -6.742188 5.703125 -6.546875 L 5.296875 -5.515625 C 4.984375 -5.703125 4.65625 -5.84375 4.3125 -5.9375 C 3.976562 -6.03125 3.65625 -6.078125 3.34375 -6.078125 C 2.820312 -6.078125 2.4375 -5.988281 2.1875 -5.8125 C 1.9375 -5.632812 1.8125 -5.40625 1.8125 -5.125 C 1.8125 -4.914062 1.878906 -4.75 2.015625 -4.625 C 2.160156 -4.5 2.34375 -4.394531 2.5625 -4.3125 C 2.789062 -4.238281 3.097656 -4.15625 3.484375 -4.0625 C 4.003906 -3.945312 4.429688 -3.820312 4.765625 -3.6875 C 5.109375 -3.5625 5.398438 -3.363281 5.640625 -3.09375 C 5.878906 -2.820312 6 -2.457031 6 -2 C 6 -1.601562 5.890625 -1.25 5.671875 -0.9375 C 5.460938 -0.625 5.140625 -0.375 4.703125 -0.1875 C 4.273438 0 3.753906 0.09375 3.140625 0.09375 Z M 3.140625 0.09375" transform="translate(257.306 110.78)"/></g></g></g><g fill="#008037"><g><g><path d="M 3.140625 0.09375 C 2.597656 0.09375 2.070312 0.0195312 1.5625 -0.125 C 1.050781 -0.28125 0.648438 -0.488281 0.359375 -0.75 L 0.8125 -1.765625 C 1.09375 -1.535156 1.441406 -1.347656 1.859375 -1.203125 C 2.285156 -1.054688 2.710938 -0.984375 3.140625 -0.984375 C 3.660156 -0.984375 4.050781 -1.066406 4.3125 -1.234375 C 4.570312 -1.410156 4.703125 -1.632812 4.703125 -1.90625 C 4.703125 -2.101562 4.628906 -2.269531 4.484375 -2.40625 C 4.335938 -2.539062 4.15625 -2.644531 3.9375 -2.71875 C 3.71875 -2.789062 3.414062 -2.875 3.03125 -2.96875 C 2.488281 -3.09375 2.050781 -3.21875 1.71875 -3.34375 C 1.382812 -3.476562 1.097656 -3.679688 0.859375 -3.953125 C 0.617188 -4.222656 0.5 -4.59375 0.5 -5.0625 C 0.5 -5.445312 0.601562 -5.796875 0.8125 -6.109375 C 1.03125 -6.429688 1.351562 -6.6875 1.78125 -6.875 C 2.207031 -7.070312 2.726562 -7.171875 3.34375 -7.171875 C 3.78125 -7.171875 4.207031 -7.113281 4.625 -7 C 5.039062 -6.894531 5.398438 -6.742188 5.703125 -6.546875 L 5.296875 -5.515625 C 4.984375 -5.703125 4.65625 -5.84375 4.3125 -5.9375 C 3.976562 -6.03125 3.65625 -6.078125 3.34375 -6.078125 C 2.820312 -6.078125 2.4375 -5.988281 2.1875 -5.8125 C 1.9375 -5.632812 1.8125 -5.40625 1.8125 -5.125 C 1.8125 -4.914062 1.878906 -4.75 2.015625 -4.625 C 2.160156 -4.5 2.34375 -4.394531 2.5625 -4.3125 C 2.789062 -4.238281 3.097656 -4.15625 3.484375 -4.0625 C 4.003906 -3.945312 4.429688 -3.820312 4.765625 -3.6875 C 5.109375 -3.5625 5.398438 -3.363281 5.640625 -3.09375 C 5.878906 -2.820312 6 -2.457031 6 -2 C 6 -1.601562 5.890625 -1.25 5.671875 -0.9375 C 5.460938 -0.625 5.140625 -0.375 4.703125 -0.1875 C 4.273438 0 3.753906 0.09375 3.140625 0.09375 Z M 3.140625 0.09375" transform="translate(265.67 110.78)"/></g></g></g><g fill="#008037"><g><g><path d="M 0.953125 -7.0625 L 2.265625 -7.0625 L 2.265625 0 L 0.953125 0 Z M 0.953125 -7.0625" transform="translate(274.033 110.78)"/></g></g></g><g fill="#008037"><g><g><path d="M 3.140625 0.09375 C 2.597656 0.09375 2.070312 0.0195312 1.5625 -0.125 C 1.050781 -0.28125 0.648438 -0.488281 0.359375 -0.75 L 0.8125 -1.765625 C 1.09375 -1.535156 1.441406 -1.347656 1.859375 -1.203125 C 2.285156 -1.054688 2.710938 -0.984375 3.140625 -0.984375 C 3.660156 -0.984375 4.050781 -1.066406 4.3125 -1.234375 C 4.570312 -1.410156 4.703125 -1.632812 4.703125 -1.90625 C 4.703125 -2.101562 4.628906 -2.269531 4.484375 -2.40625 C 4.335938 -2.539062 4.15625 -2.644531 3.9375 -2.71875 C 3.71875 -2.789062 3.414062 -2.875 3.03125 -2.96875 C 2.488281 -3.09375 2.050781 -3.21875 1.71875 -3.34375 C 1.382812 -3.476562 1.097656 -3.679688 0.859375 -3.953125 C 0.617188 -4.222656 0.5 -4.59375 0.5 -5.0625 C 0.5 -5.445312 0.601562 -5.796875 0.8125 -6.109375 C 1.03125 -6.429688 1.351562 -6.6875 1.78125 -6.875 C 2.207031 -7.070312 2.726562 -7.171875 3.34375 -7.171875 C 3.78125 -7.171875 4.207031 -7.113281 4.625 -7 C 5.039062 -6.894531 5.398438 -6.742188 5.703125 -6.546875 L 5.296875 -5.515625 C 4.984375 -5.703125 4.65625 -5.84375 4.3125 -5.9375 C 3.976562 -6.03125 3.65625 -6.078125 3.34375 -6.078125 C 2.820312 -6.078125 2.4375 -5.988281 2.1875 -5.8125 C 1.9375 -5.632812 1.8125 -5.40625 1.8125 -5.125 C 1.8125 -4.914062 1.878906 -4.75 2.015625 -4.625 C 2.160156 -4.5 2.34375 -4.394531 2.5625 -4.3125 C 2.789062 -4.238281 3.097656 -4.15625 3.484375 -4.0625 C 4.003906 -3.945312 4.429688 -3.820312 4.765625 -3.6875 C 5.109375 -3.5625 5.398438 -3.363281 5.640625 -3.09375 C 5.878906 -2.820312 6 -2.457031 6 -2 C 6 -1.601562 5.890625 -1.25 5.671875 -0.9375 C 5.460938 -0.625 5.140625 -0.375 4.703125 -0.1875 C 4.273438 0 3.753906 0.09375 3.140625 0.09375 Z M 3.140625 0.09375" transform="translate(279.27 110.78)"/></g></g></g><g fill="#008037"><g><g><path d="M 2.375 -5.953125 L 0.046875 -5.953125 L 0.046875 -7.0625 L 6.03125 -7.0625 L 6.03125 -5.953125 L 3.6875 -5.953125 L 3.6875 0 L 2.375 0 Z M 2.375 -5.953125" transform="translate(287.633 110.78)"/></g></g></g><g fill="#008037"><g><g><path d="M 5.53125 -1.640625 L 2 -1.640625 L 1.296875 0 L -0.046875 0 L 3.125 -7.0625 L 4.421875 -7.0625 L 7.609375 0 L 6.234375 0 Z M 5.09375 -2.671875 L 3.765625 -5.75 L 2.4375 -2.671875 Z M 5.09375 -2.671875" transform="translate(295.723 110.78)"/></g></g></g><g fill="#008037"><g><g><path d="M 7.234375 -7.0625 L 7.234375 0 L 6.140625 0 L 2.25 -4.78125 L 2.25 0 L 0.953125 0 L 0.953125 -7.0625 L 2.03125 -7.0625 L 5.921875 -2.28125 L 5.921875 -7.0625 Z M 7.234375 -7.0625" transform="translate(305.297 110.78)"/></g></g></g><g fill="#008037"><g><g><path d="M 2.375 -5.953125 L 0.046875 -5.953125 L 0.046875 -7.0625 L 6.03125 -7.0625 L 6.03125 -5.953125 L 3.6875 -5.953125 L 3.6875 0 L 2.375 0 Z M 2.375 -5.953125" transform="translate(315.485 110.78)"/></g></g></g></svg>